<svg width="21" height="20" viewBox="0 0 21 20" fill="none" xmlns="http://www.w3.org/2000/svg">
<path d="M19.64 10.9999C19.4957 10.8806 19.3207 10.8042 19.1351 10.7795C18.9494 10.7547 18.7606 10.7826 18.59 10.8599C17.5326 11.3438 16.3829 11.5928 15.22 11.5899C13.0689 11.5873 11.006 10.7344 9.48115 9.21701C7.95632 7.69967 7.09321 5.64102 7.08001 3.48991C7.08457 2.81574 7.16848 2.14445 7.33001 1.48991C7.36429 1.31545 7.35143 1.135 7.29277 0.967161C7.2341 0.799322 7.13175 0.650159 6.99626 0.535039C6.86076 0.419919 6.69702 0.343005 6.52191 0.312222C6.3468 0.281438 6.16665 0.297899 6.00001 0.359907C4.43234 1.06482 3.06958 2.15667 2.03977 3.53289C1.00996 4.90911 0.346893 6.52453 0.112862 8.22739C-0.121168 9.93025 0.0815189 11.6647 0.701883 13.2677C1.32225 14.8707 2.33993 16.2897 3.65931 17.3914C4.9787 18.4931 6.55649 19.2413 8.24446 19.5657C9.93243 19.8902 11.6752 19.7802 13.309 19.2461C14.9428 18.7121 16.414 17.7715 17.5844 16.5127C18.7548 15.2539 19.5861 13.7182 20 12.0499C20.0504 11.8589 20.0431 11.6572 19.9791 11.4704C19.915 11.2835 19.797 11.1198 19.64 10.9999ZM10.14 17.6899C8.46177 17.6781 6.82821 17.1478 5.46301 16.1716C4.0978 15.1955 3.06768 13.8212 2.5137 12.237C1.95971 10.6528 1.90895 8.93609 2.36835 7.32191C2.82776 5.70773 3.77487 4.27501 5.08001 3.21991V3.48991C5.08266 6.17839 6.15183 8.756 8.05287 10.657C9.95392 12.5581 12.5315 13.6273 15.22 13.6299C15.9259 13.6325 16.63 13.5587 17.32 13.4099C16.6299 14.7154 15.5965 15.8077 14.3312 16.5691C13.0659 17.3304 11.6167 17.7317 10.14 17.7299V17.6899Z" fill="white"/>
</svg>
