<svg width="24" height="24" viewBox="0 0 24 24" fill="none" xmlns="http://www.w3.org/2000/svg">
<path d="M18 6.25551C17.9055 6.16096 17.7932 6.08595 17.6697 6.03478C17.5462 5.98361 17.4138 5.95728 17.28 5.95728C17.1463 5.95728 17.0139 5.98361 16.8904 6.03478C16.7668 6.08595 16.6546 6.16096 16.56 6.25551C16.4655 6.35006 16.3905 6.46231 16.3393 6.58585C16.2881 6.70939 16.2618 6.84179 16.2618 6.97551C16.2618 7.10923 16.2881 7.24163 16.3393 7.36517C16.3905 7.48871 16.4655 7.60096 16.56 7.69551C17.4623 8.59746 18.0769 9.74674 18.3259 10.998C18.575 12.2492 18.4474 13.5462 17.9593 14.7249C17.4712 15.9037 16.6445 16.9112 15.5837 17.62C14.523 18.3288 13.2758 18.7072 12 18.7072C10.7243 18.7072 9.47712 18.3288 8.41637 17.62C7.35562 16.9112 6.52891 15.9037 6.04079 14.7249C5.55268 13.5462 5.42508 12.2492 5.67415 10.998C5.92322 9.74674 6.53776 8.59746 7.44004 7.69551C7.53459 7.60096 7.6096 7.48871 7.66077 7.36517C7.71194 7.24163 7.73828 7.10923 7.73828 6.97551C7.73828 6.84179 7.71194 6.70939 7.66077 6.58585C7.6096 6.46231 7.53459 6.35006 7.44004 6.25551C7.34549 6.16096 7.23324 6.08595 7.1097 6.03478C6.98617 5.98361 6.85376 5.95728 6.72004 5.95728C6.58633 5.95728 6.45392 5.98361 6.33038 6.03478C6.20684 6.08595 6.09459 6.16096 6.00004 6.25551C4.82196 7.44067 4.02125 8.94817 3.69892 10.5879C3.37659 12.2276 3.54707 13.926 4.18888 15.4689C4.83068 17.0118 5.91504 18.3301 7.30518 19.2575C8.69532 20.1848 10.329 20.6797 12 20.6797C13.6711 20.6797 15.3048 20.1848 16.6949 19.2575C18.085 18.3301 19.1694 17.0118 19.8112 15.4689C20.453 13.926 20.6235 12.2276 20.3012 10.5879C19.9788 8.94817 19.1781 7.44067 18 6.25551Z" fill="white"/>
<path d="M11.0111 4.31567C11.0111 3.76622 11.4565 3.3208 12.006 3.3208C12.5554 3.3208 13.0009 3.76622 13.0009 4.31567V11.0779C13.0009 11.6273 12.5554 12.0728 12.006 12.0728C11.4565 12.0728 11.0111 11.6273 11.0111 11.0779V4.31567Z" fill="white"/>
</svg>
