<svg width="18" height="18" viewBox="0 0 18 18" fill="none" xmlns="http://www.w3.org/2000/svg">
<path d="M15 3.25526C14.9055 3.16071 14.7932 3.08571 14.6697 3.03454C14.5461 2.98337 14.4137 2.95703 14.28 2.95703C14.1463 2.95703 14.0139 2.98337 13.8904 3.03454C13.7668 3.08571 13.6546 3.16071 13.56 3.25526C13.4655 3.34982 13.3905 3.46207 13.3393 3.5856C13.2881 3.70914 13.2618 3.84155 13.2618 3.97526C13.2618 4.10898 13.2881 4.24139 13.3393 4.36493C13.3905 4.48846 13.4655 4.60071 13.56 4.69526C14.4623 5.59722 15.0768 6.74649 15.3259 7.99774C15.575 9.24898 15.4474 10.546 14.9593 11.7247C14.4711 12.9034 13.6444 13.9109 12.5837 14.6198C11.5229 15.3286 10.2758 15.7069 9.00001 15.7069C7.72422 15.7069 6.47709 15.3286 5.41634 14.6198C4.35559 13.9109 3.52888 12.9034 3.04076 11.7247C2.55265 10.546 2.42505 9.24898 2.67412 7.99774C2.92319 6.74649 3.53773 5.59722 4.44001 4.69526C4.53456 4.60071 4.60957 4.48846 4.66074 4.36493C4.71191 4.24139 4.73825 4.10898 4.73825 3.97526C4.73825 3.84155 4.71191 3.70914 4.66074 3.5856C4.60957 3.46207 4.53456 3.34982 4.44001 3.25526C4.34546 3.16071 4.23321 3.08571 4.10967 3.03454C3.98614 2.98337 3.85373 2.95703 3.72001 2.95703C3.5863 2.95703 3.45389 2.98337 3.33035 3.03454C3.20681 3.08571 3.09456 3.16071 3.00001 3.25526C1.82193 4.44042 1.02122 5.94793 0.698885 7.58762C0.376555 9.22731 0.547043 10.9257 1.18885 12.4687C1.83065 14.0116 2.91501 15.3298 4.30515 16.2572C5.69529 17.1846 7.32894 17.6795 9.00001 17.6795C10.6711 17.6795 12.3047 17.1846 13.6949 16.2572C15.085 15.3298 16.1694 14.0116 16.8112 12.4687C17.453 10.9257 17.6235 9.22731 17.3011 7.58762C16.9788 5.94793 16.1781 4.44042 15 3.25526Z" fill="white"/>
<path d="M8.01108 1.31543C8.01108 0.765977 8.4565 0.320557 9.00595 0.320557C9.5554 0.320557 10.0008 0.765976 10.0008 1.31543V8.07764C10.0008 8.62709 9.5554 9.07251 9.00595 9.07251C8.4565 9.07251 8.01108 8.62709 8.01108 8.07764V1.31543Z" fill="white"/>
</svg>
